<svg width="71" height="70" xmlns="http://www.w3.org/2000/svg" xmlns:xlink="http://www.w3.org/1999/xlink" xml:space="preserve" overflow="hidden"><g transform="translate(-578 -346)"><g><g><g><g><path d="M31.6764 6.66806C42.8098 6.65732 51.8438 15.674 51.8545 26.8073 51.8548 27.0748 51.8497 27.3423 51.8393 27.6096L51.8384 27.6357 51.8384 28.405 52.0297 28.7377 56.989 37.3652 57.0082 37.3985 57.0292 37.4308C57.4961 37.9939 57.634 38.7605 57.3927 39.451 57.1895 39.8688 56.7981 40.1637 56.3405 40.2438L51.8384 40.2438 51.8384 45.995C51.8462 47.8905 51.1214 49.7158 49.8154 51.0896 48.4888 52.4307 46.6807 53.1853 44.7942 53.1848L39.8349 53.1848 39.8349 61.8125 19.9961 61.8125 19.9961 44.3551 19.4381 43.9234C14.4056 40.035 11.4754 34.0214 11.5144 27.6619L11.5144 27.6359 11.5134 27.6098C11.081 16.4848 19.7491 7.11567 30.8741 6.68326 31.1414 6.67287 31.4089 6.6678 31.6764 6.66806M31.6764 5.23056C19.7492 5.21981 10.0715 14.8801 10.0607 26.8073 10.0605 27.0923 10.0659 27.3772 10.0769 27.6619 10.0489 34.4638 13.183 40.8927 18.5586 45.0605L18.5586 63.25 41.2722 63.25 41.2722 54.6226 44.7941 54.6226C47.0608 54.6185 49.2329 53.7131 50.8316 52.1062 52.4084 50.4636 53.2848 48.2722 53.2753 45.9953L53.2753 41.6815 56.4378 41.6815C58.3066 41.4659 59.9597 39.3089 58.2347 36.6488L53.2753 28.0214 53.2753 27.662C53.7366 15.7437 44.4489 5.70802 32.5306 5.24671 32.2459 5.2357 31.9612 5.23031 31.6764 5.23056Z" fill="#000000" fill-rule="nonzero" fill-opacity="1" transform="matrix(1.01449 0 0 1 579 347)"/><path d="M43.1327 21.2344C43.4283 20.9695 43.4531 20.5151 43.1882 20.2194 42.9264 19.9274 42.4788 19.8991 42.1824 20.1559 41.7636 20.5021 41.2717 20.7487 40.7438 20.8771 39.3948 21.1051 38.0083 20.8982 36.7847 20.2863 36.4145 20.0602 36.0671 19.7986 35.7474 19.5054 36.9426 18.9826 37.9336 18.0825 38.5686 16.9429 38.75 16.5899 38.611 16.1566 38.2579 15.9751 37.9049 15.7936 37.4715 15.9327 37.29 16.2857 36.761 17.211 35.9197 17.9175 34.9169 18.2787 33.4383 18.6846 31.883 18.7232 30.3861 18.3909 30.1058 18.3309 29.7547 18.2455 29.4008 18.1561 30.2101 17.5307 30.6932 16.5729 30.7153 15.5504 30.7081 15.2829 30.7054 15.0288 30.7054 15.0264 30.7017 14.6321 30.381 14.3145 29.9867 14.3145L29.98 14.3145C29.583 14.3181 29.2643 14.6429 29.2679 15.0398 29.2679 15.0398 29.2704 15.3084 29.2785 15.5893 29.2429 16.1656 28.957 16.6974 28.4958 17.0447 27.8528 17.4411 27.1518 17.7348 26.4182 17.9152 26.2431 17.9691 26.0778 18.0316 25.9055 18.0872 25.7692 17.7248 25.575 17.3869 25.3305 17.0868 24.8532 16.5586 24.237 16.1752 23.5522 15.9804 23.1693 15.8758 22.7741 16.1015 22.6695 16.4845 22.5649 16.8674 22.7906 17.2626 23.1736 17.3672 23.1774 17.3682 23.1813 17.3692 23.1851 17.3702 23.584 17.4919 23.945 17.7141 24.2334 18.0154 24.378 18.1985 24.4923 18.4037 24.5722 18.623 24.0367 18.8973 23.5317 19.2274 23.0654 19.6076 22.1959 20.3869 21.6081 21.4315 21.3934 22.5792 21.2749 22.4748 21.166 22.3601 21.0681 22.2363 20.6913 21.5913 20.4535 20.8747 20.3701 20.1323 20.3229 19.7382 19.9651 19.457 19.5709 19.5042 19.1768 19.5514 18.8956 19.9092 18.9428 20.3034 19.0554 21.2953 19.3881 22.2497 19.9167 23.0966 20.3225 23.5829 20.7988 24.0058 21.3296 24.3513 21.3989 25.4023 21.722 26.4209 22.2712 27.3197 22.0271 27.6087 21.7629 27.8801 21.4806 28.1319 21.0738 28.4648 20.4544 28.8849 20.4481 28.8891 20.1249 29.1197 20.0499 29.5685 20.2805 29.8917 20.503 30.2035 20.9309 30.286 21.2534 30.0793 21.2808 30.0606 21.9325 29.6188 22.3905 29.244 22.6703 29.0028 22.933 28.7423 23.1767 28.4647 23.5559 28.795 23.9559 29.1005 24.3745 29.3794 25.3304 30.0478 26.4131 30.8062 26.696 31.8426 26.7895 32.4123 26.8455 32.9875 26.8638 33.5645L26.8697 39.3145 28.3072 39.313 28.3013 33.5642C28.2838 32.8596 28.2109 32.1574 28.083 31.4643 27.6636 29.9262 26.2973 28.9699 25.1992 28.2012 24.7463 27.915 24.3269 27.5791 23.9486 27.1997 23.6044 26.7926 23.3278 26.3328 23.1294 25.838 23.5574 25.698 23.9947 25.5881 24.4381 25.5089 24.9045 25.4772 25.3725 25.4788 25.8387 25.5137 26.2348 25.5401 26.5773 25.2405 26.6037 24.8445 26.6303 24.4484 26.3306 24.1058 25.9345 24.0793 25.3735 24.0382 24.8101 24.0397 24.2493 24.0839 23.7525 24.167 23.2624 24.2862 22.783 24.4405 22.7464 24.1291 22.73 23.8156 22.7338 23.502 22.7497 22.4227 23.2169 21.3994 24.0221 20.6805 24.5518 20.2647 25.1331 19.9194 25.7516 19.6531 26.1001 19.5166 26.469 19.4036 26.841 19.2892 27.0256 19.2324 27.2117 19.1742 27.3977 19.1137 27.5719 19.1618 28.3316 19.3697 29.0962 19.5617 29.6419 20.2453 29.9812 21.0704 30.0743 21.9401 30.0737 22.8595 29.8132 23.76 29.3229 24.5377 29.1246 24.818 28.8999 25.0786 28.6519 25.3161 28.3537 25.5782 28.3244 26.0323 28.5864 26.3305 28.8485 26.6286 29.3026 26.6579 29.6008 26.396 29.6041 26.393 29.6074 26.3901 29.6107 26.387 29.9378 26.0796 30.2332 25.74 30.4926 25.3736 30.5867 25.2379 30.6728 25.0969 30.7506 24.9513 31.4409 24.853 32.1248 24.7148 32.7991 24.5373 33.2908 24.3732 33.7619 24.1531 34.2032 23.8812 34.5363 23.6652 34.6312 23.2202 34.4153 22.8871 34.2027 22.5593 33.7672 22.4613 33.4347 22.6665 33.0994 22.8716 32.7424 23.039 32.3702 23.1654 32.0298 23.2596 31.6847 23.3362 31.3364 23.3949 31.4509 22.9185 31.5098 22.4305 31.5118 21.9406 31.4897 21.2476 31.3149 20.5681 30.9997 19.9506 31.5101 20.0181 32.0244 20.0523 32.5392 20.0531 33.0612 20.0522 33.5824 20.0117 34.0982 19.932 34.6968 20.5444 35.3644 21.0853 36.0877 21.5437 36.5257 21.7752 36.9887 21.9561 37.4677 22.0828 37.4718 22.0847 37.4742 22.0888 37.4783 22.0907 38.4539 22.5381 39.3587 23.126 40.1638 23.8358 40.7663 24.5118 41.1306 25.3667 41.2008 26.2695 41.2008 26.6647 41.5199 26.9858 41.9151 26.9883L41.9196 26.9883C42.3147 26.9883 42.6357 26.6694 42.6383 26.2743 42.5736 25.0208 42.0826 23.8272 41.2468 22.8909 41.0662 22.6901 40.8681 22.5057 40.6549 22.3399 40.7793 22.3232 40.9065 22.3106 41.0257 22.2868 41.8013 22.1075 42.5235 21.7469 43.1327 21.2344Z" fill="#000000" fill-rule="nonzero" fill-opacity="1" transform="matrix(1.01449 0 0 1 579 347)"/><path d="M46.5264 19.5833C46.424 16.6108 44.0242 14.2324 41.0509 14.1567 40.3897 12.7004 39.1346 11.5985 37.6049 11.1315 36.1078 10.6741 34.4894 10.8421 33.1183 11.5972 32.0246 10.781 30.6739 10.3851 29.3126 10.4821 27.9283 10.607 26.6317 11.2134 25.6483 12.1955 25.3526 12.1528 25.0543 12.1312 24.7555 12.1308 22.4694 12.1092 20.3978 13.4735 19.5147 15.5822 17.0771 16.2484 15.3814 18.4561 15.3664 20.983 15.3674 21.4375 15.4263 21.89 15.5419 22.3295 14.2903 24.1565 14.2392 26.5513 15.4117 28.4301 15.4159 28.5839 15.4331 28.7371 15.4633 28.8879 16.1704 32.376 19.355 33.9555 20.5353 34.2731 20.5433 34.2752 20.61 34.2899 20.6181 34.2917 22.5866 34.7107 22.8807 37.6185 22.8807 39.3147L24.3182 39.3147C24.3182 34.3506 22.1875 33.156 20.8961 32.8819 20.191 32.692 17.4413 31.4093 16.8711 28.5981 16.8495 28.4641 16.8407 28.3283 16.8448 28.1926L16.8402 27.9775 16.7181 27.8004C15.7015 26.3102 15.7729 24.3319 16.8942 22.9189L17.1386 22.6133 17.0151 22.2424C16.8774 21.8368 16.8062 21.4116 16.8042 20.9833 16.8191 18.9904 18.2341 17.283 20.1897 16.8983L20.593 16.8178 20.7277 16.4293C21.3108 14.7053 22.9355 13.5512 24.7553 13.5681 25.0913 13.5683 25.4266 13.604 25.7551 13.6749L26.1812 13.7696 26.4615 13.4357C27.2138 12.5637 28.2758 12.0186 29.4228 11.9154 30.5765 11.8338 31.7133 12.2287 32.568 13.0079L32.9867 13.3916 33.457 13.0731C34.5479 12.3307 35.9164 12.1219 37.1791 12.5053 38.4471 12.8954 39.4541 13.865 39.892 15.1173L40.0633 15.5916 40.8571 15.5916C43.173 15.5704 45.0684 17.429 45.0928 19.7449L45.0928 20.4175 45.4651 20.6222C46.8729 21.3988 47.6967 22.9268 47.5715 24.5297 47.3479 26.7752 45.4251 28.4647 43.1696 28.3978L36.77 28.3978C33.6511 28.4101 31.1131 30.9114 31.0554 34.0297L31.0554 39.3145 32.4929 39.3145 32.4929 34.0406C32.54 31.71 34.4388 29.843 36.77 29.8353L43.1696 29.8353C46.1831 29.9018 48.7337 27.6236 49.0066 24.6217 49.1585 22.616 48.2085 20.6862 46.5264 19.5833Z" fill="#000000" fill-rule="nonzero" fill-opacity="1" transform="matrix(1.01449 0 0 1 579 347)"/></g></g></g></g></g></svg>